<svg width="24" height="24" viewBox="0 0 24 24" fill="none" xmlns="http://www.w3.org/2000/svg">
<path d="M12.2449 9.81836V14.4657H18.8349C18.5455 15.9603 17.6771 17.2258 16.3747 18.0767L20.3488 21.0985C22.6642 19.004 24 15.9276 24 12.2731C24 11.4221 23.9221 10.6039 23.7774 9.81849L12.2449 9.81836Z" fill="#4285F4"/>
<path d="M5.3824 14.2842L4.48611 14.9566L1.31348 17.3784C3.32834 21.2947 7.45795 24.0003 12.2446 24.0003C15.5507 24.0003 18.3225 22.9312 20.3485 21.0985L16.3745 18.0766C15.2835 18.7966 13.892 19.233 12.2446 19.233C9.06091 19.233 6.35595 17.1275 5.38741 14.2911L5.3824 14.2842Z" fill="#34A853"/>
<path d="M1.31346 6.62207C0.47862 8.23657 0 10.0584 0 12.0002C0 13.942 0.47862 15.7639 1.31346 17.3784C1.31346 17.3892 5.38779 14.2802 5.38779 14.2802C5.14289 13.5602 4.99814 12.7966 4.99814 12.0001C4.99814 11.2036 5.14289 10.44 5.38779 9.72004L1.31346 6.62207Z" fill="#FBBC05"/>
<path d="M12.2449 4.77823C14.0482 4.77823 15.6512 5.38913 16.9314 6.56734L20.4379 3.13098C18.3117 1.18918 15.5511 0 12.2449 0C7.4582 0 3.32834 2.69457 1.31348 6.6219L5.38768 9.72012C6.35609 6.88369 9.06116 4.77823 12.2449 4.77823Z" fill="#EA4335"/>
</svg>
