<svg width="141" height="44" viewBox="0 0 141 44" fill="none" xmlns="http://www.w3.org/2000/svg">
<path fill-rule="evenodd" clip-rule="evenodd" d="M102.402 0.645508H106.84V16.1977C108.419 14.791 110.161 14.0865 112.068 14.0865C114.237 14.0865 115.974 14.7835 117.275 16.1776C118.379 17.3887 118.932 19.3232 118.932 21.9798V33.6442H114.494V22.391C114.494 20.8665 114.218 19.7657 113.665 19.0887C113.126 18.3992 112.251 18.0532 111.041 18.0532C109.491 18.0532 108.399 18.5296 107.768 19.4799C107.15 20.4427 106.84 22.0976 106.84 24.4421V33.6442H102.402V0.645508ZM54.403 33.6442V18.7176H57.8544V14.6143H54.403V7.63992H49.9649V14.6143H48.0718V18.7176H49.9649V33.6442H54.403ZM0 14.6143H4.43811V16.3732C5.29314 15.4869 6.02279 14.8876 6.62708 14.5754C7.27148 14.2494 8.08138 14.0865 9.05425 14.0865C11.2232 14.0865 12.9395 15.0242 14.202 16.8998C15.5961 15.0242 17.4829 14.0865 19.8624 14.0865C24.189 14.0865 26.3529 16.6854 26.3529 21.882V33.6442H21.8947V23.0743C21.8947 21.2501 21.6715 19.9613 21.224 19.2053C20.7638 18.4368 20.0079 18.0519 18.9547 18.0519C17.7324 18.0519 16.8385 18.5083 16.2718 19.421C15.7202 20.3324 15.4444 21.798 15.4444 23.8165V33.6442H10.9862V23.1332C10.9862 19.7457 10.0008 18.0532 8.02747 18.0532C6.77878 18.0532 5.86483 18.5158 5.28562 19.4398C4.72145 20.365 4.43811 21.8231 4.43811 23.8165V33.6442H0V14.6143ZM47.0277 25.1654H33.2595C33.3774 26.7288 33.8914 27.9724 34.7978 28.8977C35.7055 29.8091 36.869 30.2642 38.2894 30.2642C39.3939 30.2642 40.3079 30.0047 41.0313 29.4831C41.7409 28.9616 42.5495 27.9988 43.4572 26.5921L47.2058 28.6632C46.6265 29.6399 46.0147 30.4798 45.3703 31.1832C44.7594 31.8456 44.0629 32.4237 43.2992 32.902C42.5578 33.3473 41.7529 33.677 40.9122 33.8799C40.001 34.0946 39.0675 34.1994 38.1314 34.1921C35.2642 34.1921 32.9637 33.2806 31.2273 31.4565C29.4922 29.6198 28.6246 27.1838 28.6246 24.1499C28.6246 21.141 29.4658 18.7051 31.1496 16.842C32.8458 15.0054 35.0937 14.0877 37.8945 14.0877C40.7216 14.0877 42.957 14.9803 44.6018 16.7643C46.2316 18.5358 47.0465 20.9906 47.0465 24.1298L47.0277 25.1654ZM42.4705 21.571C41.8524 19.2266 40.3605 18.0531 37.9935 18.0531C37.4766 18.0496 36.9629 18.1357 36.4753 18.3076C36.0029 18.4632 35.5619 18.7013 35.1727 19.011C34.7847 19.3177 34.4511 19.6878 34.186 20.1054C33.9003 20.5579 33.6875 21.0525 33.5554 21.571H42.4705ZM72.9651 14.6155H77.4221V33.6442H72.9651V31.6508C71.1372 33.3446 69.1714 34.1921 67.0665 34.1921C64.4111 34.1921 62.2146 33.2405 60.4783 31.3399C58.7569 29.3992 57.8956 26.977 57.8956 24.0709C57.8956 21.2188 58.7569 18.8417 60.4783 16.9399C62.2021 15.038 64.3585 14.0877 66.9486 14.0877C69.184 14.0877 71.1899 14.9991 72.9651 16.8233V14.6155ZM62.4303 24.0709C62.4303 25.8951 62.923 27.3807 63.9096 28.5254C64.9226 29.685 66.1977 30.2642 67.736 30.2642C69.3796 30.2642 70.7072 29.7051 71.7202 28.5843C72.7332 27.4259 73.2397 25.954 73.2397 24.1687C73.2397 22.3847 72.7332 20.9129 71.7202 19.7532C70.7085 18.6198 69.3933 18.0532 67.7761 18.0532C66.2503 18.0532 64.9753 18.6274 63.9498 19.7732C62.9368 20.9329 62.4303 22.3647 62.4303 24.0709ZM80.6042 43.9998H85.0423V31.5154C86.8176 33.2995 88.8298 34.1921 91.0789 34.1921C93.6816 34.1921 95.8392 33.2468 97.5493 31.3587C99.2706 29.4569 100.132 27.0798 100.132 24.2277C100.132 21.3103 99.2643 18.8932 97.5279 16.9787C95.8191 15.0518 93.6427 14.0877 90.9999 14.0877C88.7771 14.0877 86.7912 14.954 85.0423 16.6854V14.6155H80.6042V43.9998ZM94.0966 19.7921C95.0945 20.9392 95.596 22.4236 95.596 24.2465C95.596 25.9666 95.082 27.3995 94.0564 28.5454C93.0585 29.6913 91.7885 30.2643 90.2502 30.2643C88.6191 30.2643 87.304 29.6976 86.3048 28.5642C85.2918 27.4058 84.7866 25.934 84.7866 24.1499C84.7866 22.3258 85.2918 20.854 86.3048 19.7331C87.3178 18.6136 88.6392 18.0532 90.269 18.0532C91.8085 18.0532 93.0836 18.6336 94.0966 19.7921ZM118.896 14.6143L127.534 30.1075L120.04 43.9998H125.108L140.415 14.6143H135.405L129.921 25.5553L124.044 14.6143H118.896Z" fill="#6758FF"/>
</svg>
