<svg width="282" height="87" viewBox="0 0 282 87" fill="none" xmlns="http://www.w3.org/2000/svg">
<path fill-rule="evenodd" clip-rule="evenodd" d="M205.39 0.290527H214.266V31.3949C217.423 28.5816 220.908 27.1724 224.722 27.1724C229.06 27.1724 232.533 28.5666 235.136 31.3548C237.345 33.777 238.45 37.6459 238.45 42.9591V66.288H229.574V43.7815C229.574 40.7325 229.022 38.531 227.917 37.177C226.839 35.7979 225.088 35.1059 222.669 35.1059C219.567 35.1059 217.383 36.0587 216.122 37.9593C214.886 39.885 214.266 43.1948 214.266 47.8836V66.288H205.39V0.290527ZM109.391 66.288V36.4348H116.294V28.2281H109.391V14.2793H100.515V28.2281H96.729V36.4348H100.515V66.288H109.391ZM0.585449 28.2281H9.46167V31.746C11.1717 29.9732 12.631 28.7747 13.8396 28.1503C15.1284 27.4984 16.7482 27.1724 18.6939 27.1724C23.0318 27.1724 26.4644 29.048 28.9894 32.7991C31.7776 29.048 35.5513 27.1724 40.3103 27.1724C48.9634 27.1724 53.2912 32.3703 53.2912 42.7635V66.288H44.3748V45.148C44.3748 41.4998 43.9285 38.9222 43.0334 37.4102C42.1131 35.8731 40.6012 35.1034 38.4949 35.1034C36.0502 35.1034 34.2624 36.0161 33.1291 37.8415C32.0258 39.6643 31.4742 42.5955 31.4742 46.6324V66.288H22.5579V45.2659C22.5579 38.4909 20.587 35.1059 16.6404 35.1059C14.143 35.1059 12.3151 36.0311 11.1567 37.8791C10.0283 39.7295 9.46167 42.6457 9.46167 46.6324V66.288H0.585449V28.2281ZM94.6407 49.3306H67.1044C67.3401 52.4574 68.3681 54.9447 70.1809 56.7952C71.9963 58.6181 74.3232 59.5283 77.1641 59.5283C79.3731 59.5283 81.201 59.0092 82.6478 57.9661C84.067 56.9231 85.6842 54.9974 87.4996 52.1841L94.9968 56.3263C93.8383 58.2796 92.6147 59.9595 91.3259 61.3662C90.1041 62.6911 88.7111 63.8471 87.1837 64.8038C85.7009 65.6944 84.091 66.3539 82.4096 66.7596C80.5874 67.1891 78.7202 67.3987 76.8482 67.384C71.1137 67.384 66.5126 65.5611 63.0399 61.9128C59.5696 58.2394 57.8345 53.3675 57.8345 47.2996C57.8345 41.2818 59.5169 36.41 62.8844 32.6839C66.2769 29.0106 70.7727 27.1752 76.3743 27.1752C82.0285 27.1752 86.4992 28.9604 89.7889 32.5285C93.0485 36.0714 94.6783 40.981 94.6783 47.2595L94.6407 49.3306ZM85.5263 42.1419C84.2901 37.453 81.3063 35.1061 76.5723 35.1061C75.5384 35.0991 74.511 35.2713 73.5359 35.6151C72.5911 35.9262 71.709 36.4025 70.9307 37.0218C70.1546 37.6353 69.4874 38.3754 68.9573 39.2107C68.3859 40.1156 67.9603 41.1048 67.6961 42.1419H85.5263ZM146.516 28.2305H155.429V66.288H146.516V62.3012C142.86 65.6887 138.928 67.3837 134.718 67.3837C129.407 67.3837 125.014 65.4806 121.542 61.6794C118.099 57.7979 116.376 52.9536 116.376 47.1414C116.376 41.4371 118.099 36.683 121.542 32.8793C124.989 29.0755 129.302 27.1749 134.482 27.1749C138.953 27.1749 142.965 28.9978 146.516 32.6461V28.2305ZM125.446 47.1414C125.446 50.7897 126.431 53.761 128.405 56.0502C130.43 58.3696 132.981 59.528 136.057 59.528C139.344 59.528 142 58.4097 144.026 56.1681C146.052 53.8512 147.065 50.9075 147.065 47.337C147.065 43.7689 146.052 40.8252 144.026 38.5059C142.002 36.2392 139.372 35.1058 136.137 35.1058C133.086 35.1058 130.536 36.2542 128.485 38.546C126.459 40.8654 125.446 43.7288 125.446 47.1414ZM161.793 86.9999H170.67V62.0311C174.22 65.5992 178.245 67.3845 182.743 67.3845C187.948 67.3845 192.263 65.4939 195.684 61.7177C199.126 57.914 200.849 53.1599 200.849 47.4556C200.849 41.6208 199.114 36.7866 195.641 32.9577C192.223 29.1039 187.87 27.1757 182.585 27.1757C178.139 27.1757 174.168 28.9083 170.67 32.371V28.2313H161.793V86.9999ZM188.778 38.5844C190.774 40.8787 191.777 43.8474 191.777 47.4932C191.777 50.9334 190.749 53.7993 188.698 56.0911C186.702 58.3829 184.162 59.5288 181.085 59.5288C177.823 59.5288 175.193 58.3954 173.195 56.1287C171.169 53.8119 170.158 50.8682 170.158 47.3001C170.158 43.6518 171.169 40.7082 173.195 38.4665C175.221 36.2274 177.863 35.1066 181.123 35.1066C184.202 35.1066 186.752 36.2675 188.778 38.5844ZM238.378 28.2288L255.654 59.2153L240.665 86.9999H250.803L281.416 28.2288H271.396L260.429 50.1109L248.674 28.2288H238.378Z" fill="#6758FF"/>
</svg>
