<svg width="444" height="80" viewBox="0 0 444 80" fill="none" xmlns="http://www.w3.org/2000/svg">
<path d="M36.2433 11.5618C37.4258 7.92267 42.5742 7.92267 43.7567 11.5618L48.0937 24.9099C48.6225 26.5374 50.1392 27.6393 51.8504 27.6393H65.8854C69.7119 27.6393 71.3028 32.5358 68.2072 34.7849L56.8526 43.0345C55.4682 44.0404 54.8889 45.8233 55.4177 47.4507L59.7547 60.7988C60.9372 64.438 56.772 67.4642 53.6763 65.2151L42.3218 56.9655C40.9373 55.9596 39.0627 55.9596 37.6782 56.9655L26.3237 65.2151C23.228 67.4642 19.0628 64.438 20.2453 60.7988L24.5823 47.4507C25.1111 45.8233 24.5318 44.0404 23.1474 43.0345L11.7928 34.7849C8.69717 32.5358 10.2881 27.6393 14.1146 27.6393H28.1496C29.8608 27.6393 31.3775 26.5374 31.9063 24.9099L36.2433 11.5618Z" fill="#6758FF"/>
<path d="M127.093 11.5618C128.276 7.92267 133.424 7.92267 134.607 11.5618L138.944 24.9099C139.473 26.5374 140.989 27.6393 142.701 27.6393H156.736C160.562 27.6393 162.153 32.5358 159.057 34.7849L147.703 43.0345C146.318 44.0404 145.739 45.8233 146.268 47.4507L150.605 60.7988C151.787 64.438 147.622 67.4642 144.526 65.2151L133.172 56.9655C131.787 55.9596 129.913 55.9596 128.528 56.9655L117.174 65.2151C114.078 67.4642 109.913 64.438 111.095 60.7988L115.432 47.4507C115.961 45.8233 115.382 44.0404 113.997 43.0345L102.643 34.7849C99.5473 32.5358 101.138 27.6393 104.965 27.6393H119C120.711 27.6393 122.228 26.5374 122.756 24.9099L127.093 11.5618Z" fill="#6758FF"/>
<path d="M217.944 11.5618C219.126 7.92267 224.274 7.92267 225.457 11.5618L229.794 24.9099C230.323 26.5374 231.839 27.6393 233.551 27.6393H247.586C251.412 27.6393 253.003 32.5358 249.907 34.7849L238.553 43.0345C237.168 44.0404 236.589 45.8233 237.118 47.4507L241.455 60.7988C242.637 64.438 238.472 67.4642 235.377 65.2151L224.022 56.9655C222.638 55.9596 220.763 55.9596 219.378 56.9655L208.024 65.2151C204.928 67.4642 200.763 64.438 201.945 60.7988L206.283 47.4507C206.811 45.8233 206.232 44.0404 204.848 43.0345L193.493 34.7849C190.397 32.5358 191.988 27.6393 195.815 27.6393H209.85C211.561 27.6393 213.078 26.5374 213.606 24.9099L217.944 11.5618Z" fill="#6758FF"/>
<path d="M308.793 11.5618C309.976 7.92267 315.124 7.92267 316.306 11.5618L320.644 24.9099C321.172 26.5374 322.689 27.6393 324.4 27.6393H338.435C342.262 27.6393 343.853 32.5358 340.757 34.7849L329.402 43.0345C328.018 44.0404 327.439 45.8233 327.967 47.4507L332.305 60.7988C333.487 64.438 329.322 67.4642 326.226 65.2151L314.872 56.9655C313.487 55.9596 311.612 55.9596 310.228 56.9655L298.873 65.2151C295.778 67.4642 291.613 64.438 292.795 60.7988L297.132 47.4507C297.661 45.8233 297.082 44.0404 295.697 43.0345L284.343 34.7849C281.247 32.5358 282.838 27.6393 286.664 27.6393H300.699C302.411 27.6393 303.927 26.5374 304.456 24.9099L308.793 11.5618Z" fill="#D9D9D9"/>
<path d="M399.643 11.5618C400.826 7.92267 405.974 7.92267 407.157 11.5618L411.494 24.9099C412.022 26.5374 413.539 27.6393 415.25 27.6393H429.285C433.112 27.6393 434.703 32.5358 431.607 34.7849L420.253 43.0345C418.868 44.0404 418.289 45.8233 418.818 47.4507L423.155 60.7988C424.337 64.438 420.172 67.4642 417.076 65.2151L405.722 56.9655C404.337 55.9596 402.463 55.9596 401.078 56.9655L389.724 65.2151C386.628 67.4642 382.463 64.438 383.645 60.7988L387.982 47.4507C388.511 45.8233 387.932 44.0404 386.547 43.0345L375.193 34.7849C372.097 32.5358 373.688 27.6393 377.514 27.6393H391.549C393.261 27.6393 394.777 26.5374 395.306 24.9099L399.643 11.5618Z" fill="#D9D9D9"/>
</svg>
