<svg width="248" height="248" viewBox="0 0 248 248" fill="none" xmlns="http://www.w3.org/2000/svg">
<g clip-path="url(#clip0_174_4257)">
<mask id="mask0_174_4257" style="mask-type:luminance" maskUnits="userSpaceOnUse" x="0" y="0" width="248" height="248">
<path d="M248 0H0V248H248V0Z" fill="white"/>
</mask>
<g mask="url(#mask0_174_4257)">
<g opacity="0.6">
<path d="M125.052 228.476C146.725 228.476 164.321 232.645 164.321 237.78C164.321 242.916 146.725 247.085 125.052 247.085C103.38 247.085 85.7832 242.916 85.7832 237.78C85.7832 232.645 103.38 228.476 125.052 228.476Z" fill="#C4C4C4"/>
</g>
<path d="M34.4662 62.6198C43.6689 62.3179 51.4456 71.3621 51.8211 82.8034C52.1965 94.2446 45.0294 103.779 35.8266 104.081C26.6239 104.383 18.8472 95.3389 18.4717 83.8977C18.0963 72.4564 25.2634 62.9218 34.4662 62.6198Z" fill="#E1E1E1"/>
<path d="M205.419 57.0105C214.622 56.7085 222.398 65.7527 222.774 77.194C223.149 88.6352 215.982 98.1698 206.779 98.4718C197.577 98.7738 189.8 89.7295 189.424 78.2883C189.049 66.847 196.216 57.3124 205.419 57.0105Z" fill="#E1E1E1"/>
<path d="M122.497 118.511C118.777 118.511 81.314 115.204 76.6011 140.139C74.1424 153.147 75.9031 179.534 90.8525 194.371C102.442 205.874 119.145 205.298 123.098 205.386C127.17 205.476 146.772 206.167 158.114 194.713C171.893 180.798 175.103 153.08 172.019 139.6C167.456 119.65 137.828 118.511 122.497 118.511Z" fill="url(#paint0_linear_174_4257)"/>
<path d="M123.549 120.014C142.38 120.014 157.668 124.391 157.668 129.783C157.668 135.175 142.38 139.553 123.549 139.553C104.719 139.553 89.4307 135.175 89.4307 129.783C89.4307 124.391 104.719 120.014 123.549 120.014Z" fill="#D1D1D1"/>
<path d="M123.549 120.014C142.38 120.014 157.668 124.391 157.668 129.783C157.668 135.175 142.38 139.553 123.549 139.553C104.719 139.553 89.4307 135.175 89.4307 129.783C89.4307 124.391 104.719 120.014 123.549 120.014Z" stroke="#939393" stroke-width="0.300606"/>
<path d="M200.995 45.3647C163.748 -8.15288 64.937 5.31552 43.0403 52.9538C35.0606 70.3146 22.2965 117.397 77.1746 121.612C87.5227 122.407 172.736 119.078 172.736 119.078C172.736 119.078 195.098 117.132 205.35 101.027C213.071 88.8974 214.259 64.4228 200.995 45.3647Z" fill="url(#paint1_linear_174_4257)"/>
<path d="M199.691 68.5177L200.026 78.7328C200.374 89.345 191.803 98.2518 180.898 98.6096L84.2642 101.78C73.3593 102.138 64.2226 93.8126 63.8743 83.2004L63.5391 72.9853C63.1909 62.3731 71.7622 53.4663 82.6672 53.1085L179.301 49.9376C190.206 49.5798 199.342 57.9056 199.691 68.5177Z" fill="#222222"/>
<path d="M143.45 51.3135C143.089 52.9888 146.44 82.8711 122.787 99.8887L184.984 97.7243C184.984 97.7243 199.726 97.8421 199.814 73.0259C199.858 60.5498 194.768 49.882 181.689 50.0104C168.61 50.1388 143.455 51.4637 143.45 51.3135Z" fill="#3A3A3A"/>
<path d="M94.3816 68.0629L94.9436 85.1882C95.0415 88.1729 92.6977 90.6757 89.713 90.7736C86.7283 90.8716 84.2255 88.5278 84.1276 85.5431L83.5656 68.4178C83.4677 65.4331 85.8115 62.9302 88.7962 62.8323C91.7809 62.7344 94.2837 65.0782 94.3816 68.0629Z" fill="#4084FF"/>
<path d="M177.905 65.3226L178.467 82.448C178.565 85.4326 176.221 87.9355 173.236 88.0334C170.252 88.1313 167.749 85.7875 167.651 82.8029L167.089 65.6775C166.991 62.6929 169.335 60.19 172.32 60.0921C175.304 59.9941 177.807 62.338 177.905 65.3226Z" fill="#4084FF"/>
<path d="M57.8486 130.263C39.1625 151.404 44.1591 177.953 46.2037 186.168C47.353 190.785 53.1447 192.619 56.4457 190.917C59.0174 189.592 59.3437 185.319 59.55 183.748C63.6314 152.634 68.7856 138.118 70.1327 134.867C70.7601 133.354 70.2092 129.5 67.6065 128.327C64.6205 126.982 59.391 128.518 57.8486 130.263Z" fill="#EFEFEF"/>
<path d="M190.422 138.551C212.793 121.356 212.944 94.3411 212.502 85.8876C212.253 81.1357 206.917 78.232 203.352 79.2739C200.575 80.0855 199.441 84.2177 198.939 85.7211C189.006 115.487 181.181 128.757 179.24 131.691C178.336 133.057 178.142 136.945 180.474 138.592C183.149 140.482 188.575 139.97 190.422 138.551Z" fill="url(#paint2_linear_174_4257)"/>
</g>
</g>
<defs>
<linearGradient id="paint0_linear_174_4257" x1="80.7128" y1="153.681" x2="156.465" y2="153.08" gradientUnits="userSpaceOnUse">
<stop stop-color="#F3F3F3"/>
<stop offset="0.65" stop-color="#D9DEE3"/>
<stop offset="1" stop-color="#C3C3C3"/>
</linearGradient>
<linearGradient id="paint1_linear_174_4257" x1="40.9926" y1="100.542" x2="189.432" y2="96.2731" gradientUnits="userSpaceOnUse">
<stop stop-color="#F3F3F3"/>
<stop offset="0.65" stop-color="#D9DEE3"/>
<stop offset="1" stop-color="#C3C3C3"/>
</linearGradient>
<linearGradient id="paint2_linear_174_4257" x1="205.206" y1="120.258" x2="178.64" y2="107.948" gradientUnits="userSpaceOnUse">
<stop stop-color="#CECECE"/>
<stop offset="0.65" stop-color="#EDEDED"/>
<stop offset="1" stop-color="#EFEFEF"/>
</linearGradient>
<clipPath id="clip0_174_4257">
<rect width="248" height="248" fill="white"/>
</clipPath>
</defs>
</svg>
