<svg width="16" height="16" viewBox="0 0 16 16" fill="none" xmlns="http://www.w3.org/2000/svg">
<path fill-rule="evenodd" clip-rule="evenodd" d="M1.3335 7.99967C1.3335 4.31778 4.31826 1.33301 8.00016 1.33301C11.6821 1.33301 14.6668 4.31778 14.6668 7.99967C14.6668 11.6816 11.6821 14.6663 8.00016 14.6663C4.31826 14.6663 1.3335 11.6816 1.3335 7.99967ZM8.00016 4.66634C7.63197 4.66634 7.3335 4.96482 7.3335 5.33301C7.3335 5.7012 7.63197 5.99967 8.00016 5.99967H8.00683C8.37502 5.99967 8.6735 5.7012 8.6735 5.33301C8.6735 4.96482 8.37502 4.66634 8.00683 4.66634H8.00016ZM8.66683 7.99967C8.66683 7.63149 8.36835 7.33301 8.00016 7.33301C7.63197 7.33301 7.3335 7.63149 7.3335 7.99967V10.6663C7.3335 11.0345 7.63197 11.333 8.00016 11.333C8.36835 11.333 8.66683 11.0345 8.66683 10.6663V7.99967Z" fill="#686B6E"/>
</svg>
