<svg width="282" height="87" viewBox="0 0 282 87" fill="none" xmlns="http://www.w3.org/2000/svg">
<path fill-rule="evenodd" clip-rule="evenodd" d="M205.39 0.291992H214.266V31.3964C217.423 28.5831 220.908 27.1739 224.722 27.1739C229.06 27.1739 232.533 28.568 235.136 31.3563C237.345 33.7784 238.45 37.6474 238.45 42.9605V66.2895H229.574V43.783C229.574 40.734 229.022 38.5325 227.917 37.1785C226.839 35.7994 225.088 35.1073 222.669 35.1073C219.567 35.1073 217.383 36.0602 216.122 37.9608C214.886 39.8865 214.266 43.1962 214.266 47.8851V66.2895H205.39V0.291992ZM109.391 66.2895V36.4363H116.294V28.2295H109.391V14.2808H100.515V28.2295H96.729V36.4363H100.515V66.2895H109.391ZM0.585449 28.2295H9.46167V31.7474C11.1717 29.9747 12.631 28.7761 13.8396 28.1518C15.1284 27.4999 16.7482 27.1739 18.6939 27.1739C23.0318 27.1739 26.4644 29.0494 28.9894 32.8005C31.7776 29.0494 35.5513 27.1739 40.3103 27.1739C48.9634 27.1739 53.2912 32.3718 53.2912 42.765V66.2895H44.3748V45.1495C44.3748 41.5012 43.9285 38.9236 43.0334 37.4116C42.1131 35.8746 40.6012 35.1048 38.4949 35.1048C36.0502 35.1048 34.2624 36.0175 33.1291 37.8429C32.0258 39.6658 31.4742 42.597 31.4742 46.6339V66.2895H22.5579V45.2674C22.5579 38.4923 20.587 35.1073 16.6404 35.1073C14.143 35.1073 12.3151 36.0326 11.1567 37.8805C10.0283 39.731 9.46167 42.6471 9.46167 46.6339V66.2895H0.585449V28.2295ZM94.6407 49.3311H67.1044C67.3401 52.4578 68.3681 54.9452 70.1809 56.7957C71.9963 58.6185 74.3232 59.5287 77.1641 59.5287C79.3731 59.5287 81.201 59.0097 82.6478 57.9666C84.067 56.9235 85.6842 54.9979 87.4996 52.1845L94.9968 56.3268C93.8383 58.28 92.6147 59.96 91.3259 61.3667C90.1041 62.6916 88.7111 63.8476 87.1837 64.8043C85.7009 65.6949 84.091 66.3544 82.4096 66.7601C80.5874 67.1895 78.7202 67.3992 76.8482 67.3844C71.1137 67.3844 66.5126 65.5616 63.0399 61.9133C59.5696 58.2399 57.8345 53.368 57.8345 47.3001C57.8345 41.2823 59.5169 36.4104 62.8844 32.6844C66.2769 29.0111 70.7727 27.1757 76.3743 27.1757C82.0285 27.1757 86.4992 28.9609 89.7889 32.529C93.0485 36.0719 94.6783 40.9814 94.6783 47.26L94.6407 49.3311ZM85.5263 42.1424C84.2901 37.4535 81.3063 35.1066 76.5723 35.1066C75.5384 35.0996 74.511 35.2718 73.5359 35.6156C72.5911 35.9267 71.709 36.4029 70.9307 37.0222C70.1546 37.6358 69.4874 38.3759 68.9573 39.2112C68.3859 40.1161 67.9603 41.1052 67.6961 42.1424H85.5263ZM146.516 28.232H155.429V66.2894H146.516V62.3027C142.86 65.6902 138.928 67.3852 134.718 67.3852C129.407 67.3852 125.014 65.482 121.542 61.6808C118.099 57.7993 116.376 52.955 116.376 47.1429C116.376 41.4385 118.099 36.6845 121.542 32.8807C124.989 29.077 129.302 27.1764 134.482 27.1764C138.953 27.1764 142.965 28.9993 146.516 32.6475V28.232ZM125.446 47.1429C125.446 50.7911 126.431 53.7624 128.405 56.0517C130.43 58.371 132.981 59.5295 136.057 59.5295C139.344 59.5295 142 58.4112 144.026 56.1695C146.052 53.8527 147.065 50.909 147.065 47.3384C147.065 43.7704 146.052 40.8267 144.026 38.5074C142.002 36.2407 139.372 35.1073 136.137 35.1073C133.086 35.1073 130.536 36.2557 128.485 38.5475C126.459 40.8668 125.446 43.7303 125.446 47.1429ZM161.793 87.0004H170.67V62.0316C174.22 65.5997 178.245 67.3849 182.743 67.3849C187.948 67.3849 192.263 65.4944 195.684 61.7182C199.126 57.9145 200.849 53.1604 200.849 47.4561C200.849 41.6213 199.114 36.787 195.641 32.9582C192.223 29.1044 187.87 27.1762 182.585 27.1762C178.139 27.1762 174.168 28.9088 170.67 32.3715V28.2318H161.793V87.0004ZM188.778 38.5849C190.774 40.8791 191.777 43.8479 191.777 47.4937C191.777 50.9338 190.749 53.7998 188.698 56.0916C186.702 58.3834 184.162 59.5292 181.085 59.5292C177.823 59.5292 175.193 58.3959 173.195 56.1292C171.169 53.8124 170.158 50.8687 170.158 47.3006C170.158 43.6523 171.169 40.7086 173.195 38.467C175.221 36.2279 177.863 35.1071 181.123 35.1071C184.202 35.1071 186.752 36.268 188.778 38.5849ZM238.378 28.2293L255.654 59.2158L240.665 87.0004H250.803L281.416 28.2293H271.396L260.429 50.1114L248.674 28.2293H238.378Z" fill="#6758FF"/>
</svg>
